<?xml version="1.0" encoding="utf-8"?>
<!-- Generator: Adobe Illustrator 24.2.1, SVG Export Plug-In . SVG Version: 6.00 Build 0)  -->
<svg version="1.1" id="Layer_1" xmlns="http://www.w3.org/2000/svg" xmlns:xlink="http://www.w3.org/1999/xlink" x="0px" y="0px"
	 viewBox="0 0 1314.39 555.15" style="enable-background:new 0 0 1314.39 555.15;" xml:space="preserve">
<style type="text/css">
	.st0{fill:#E7194F;}
	.st1{fill:#FFFFFF;}
</style>
<path class="st0" d="M670.62,140.03c1.65-2.57,4.02-4.09,7.11-4.53c3.08-0.44,5.69,0.31,7.82,2.25c7.08,5.52,14.82,9.41,23.25,11.65
	c8.41,2.25,16.73,2.88,24.93,1.9c8.2-0.98,16.07-3.49,23.59-7.53c7.52-4.04,14.03-9.6,19.56-16.68c5.51-7.08,9.35-14.7,11.51-22.88
	c2.15-8.16,2.67-16.35,1.58-24.54c-1.1-8.19-3.67-16.05-7.7-23.57c-4.04-7.52-9.6-14.04-16.68-19.56
	c-7.08-5.52-14.71-9.35-22.87-11.51c-8.17-2.15-16.35-2.68-24.54-1.58c-8.2,1.1-16.1,3.73-23.73,7.9
	c-7.64,4.18-14.21,9.8-19.72,16.87l-52.96,63.33c-1.68,2.34-4.12,3.74-7.32,4.2c-3.21,0.45-5.87-0.29-8.01-2.23
	c-2.59-1.9-4.07-4.39-4.39-7.49c-0.33-3.1,0.35-5.82,2.04-8.15l53.3-63.37c7.44-9.45,16.17-16.97,26.17-22.6
	c10-5.62,20.54-9.07,31.6-10.35c11.06-1.28,22.22-0.46,33.48,2.45c11.26,2.92,21.83,7.95,31.74,15.1
	c8.94,7.25,16.16,15.89,21.67,25.9c5.5,10.02,8.89,20.56,10.17,31.62c1.28,11.06,0.52,22.16-2.29,33.29
	c-2.8,11.13-7.93,21.42-15.35,30.86c-7.45,9.45-16.11,16.92-26.01,22.41c-9.9,5.5-20.38,8.87-31.44,10.15
	c-11.05,1.28-22.16,0.46-33.31-2.47c-11.13-2.93-21.56-8.21-31.27-15.87c-2.61-1.9-4.07-4.32-4.38-7.31
	C667.86,144.72,668.68,142.17,670.62,140.03"/>
<path class="st0" d="M634.79,33.89c-1.65,2.57-4.02,4.09-7.12,4.54c-3.07,0.44-5.68-0.31-7.81-2.26
	c-7.08-5.52-14.82-9.4-23.25-11.65c-8.41-2.25-16.73-2.89-24.93-1.9c-8.21,0.98-16.07,3.49-23.59,7.53
	c-7.52,4.04-14.03,9.59-19.56,16.67c-5.52,7.08-9.35,14.7-11.51,22.88c-2.15,8.17-2.67,16.35-1.58,24.54
	c1.1,8.19,3.67,16.05,7.7,23.58c4.04,7.52,9.6,14.03,16.68,19.55c7.08,5.52,14.71,9.35,22.88,11.51c8.17,2.16,16.35,2.68,24.54,1.58
	c8.2-1.1,16.1-3.73,23.73-7.9c7.64-4.17,14.21-9.79,19.72-16.87l52.96-63.33c1.67-2.34,4.12-3.74,7.32-4.2
	c3.22-0.46,5.88,0.29,8.01,2.23c2.59,1.9,4.07,4.39,4.39,7.48c0.33,3.09-0.36,5.82-2.04,8.16l-53.31,63.37
	c-7.44,9.44-16.16,16.97-26.17,22.6c-10,5.62-20.54,9.07-31.6,10.35c-11.07,1.27-22.22,0.45-33.49-2.45
	c-11.25-2.92-21.83-7.95-31.74-15.1c-8.95-7.25-16.16-15.88-21.67-25.9c-5.5-10.02-8.89-20.56-10.17-31.62
	c-1.28-11.06-0.52-22.15,2.29-33.28c2.8-11.13,7.93-21.42,15.36-30.86c7.45-9.45,16.11-16.92,26.01-22.41
	c9.9-5.5,20.38-8.88,31.44-10.16c11.06-1.28,22.16-0.45,33.31,2.48c11.14,2.93,21.56,8.22,31.28,15.87
	c2.61,1.89,4.06,4.32,4.37,7.31C637.56,29.21,636.74,31.76,634.79,33.89"/>
<path class="st1" d="M1.82,518.88c-2.13-2.13-2.55-5.53-0.42-7.66c2.12-2.12,5.53-2.55,7.65-0.42c0.43,0.42,31.05,27.64,71.03,27.64
	c37.86,0,68.9-22.11,68.9-49.33c0-31.9-31.05-38.7-63.8-46.36c-33.17-8.08-71.03-16.59-71.03-55.72c0-28.07,29.77-50.61,65.92-50.61
	c41.68,0,63.37,24.24,64.23,25.51c2.12,2.13,1.7,5.54-0.43,7.66c-2.55,2.13-5.95,1.7-7.65-0.42c-0.43-0.42-19.57-21.69-56.15-21.69
	c-30.2,0-54.86,17.44-54.86,39.55c0,30.2,28.92,37,62.52,45.08c34.03,7.66,72.3,16.59,72.3,56.99c0,33.6-35.3,59.97-79.96,59.97
	C35.85,549.08,3.1,520.16,1.82,518.88"/>
<path class="st1" d="M211.48,444.87c0.85-57.84,45.51-104.2,101.23-104.2c53.16,0,96.12,42.11,99.95,96.12v0.42v0.85v0.43
	c-0.42,2.55-2.55,5.1-5.11,5.1H222.11v1.28c0,51.04,40.41,93.15,90.59,93.57c31.47,0,59.12-17.01,74.85-42.53
	c1.71-2.55,4.68-2.55,7.66-1.28c2.13,1.28,2.98,4.68,1.28,7.23c-17.86,27.65-48.91,47.21-83.78,47.21
	C256.99,548.22,212.33,501.87,211.48,444.87 M222.53,433.39h179.48c-5.53-46.36-43.81-81.66-89.31-81.66
	C266.34,351.73,228.06,387.03,222.53,433.39"/>
<path class="st1" d="M492.58,256.88c0-2.98,2.13-5.53,5.53-5.53c2.98,0,5.11,2.55,5.11,5.53v286.67c0,2.98-2.12,5.53-5.11,5.53
	c-3.4,0-5.53-2.55-5.53-5.53V256.88z"/>
<path class="st1" d="M679.29,250.93c-16.59,0-29.77,3.4-39.13,13.61c-8.93,10.2-12.76,25.09-12.76,46.36v28.07v11.06v44.66H591.7
	c-2.98,0-5.11,2.55-5.11,5.53c0,2.98,2.13,5.53,5.11,5.53h35.69v72.4c0,0.19,0.01,0.39,0.03,0.58v10.38
	c0,19.99-3.4,32.33-9.78,39.13c-5.95,6.8-15.73,10.2-31.05,10.2c-2.98,0-5.53,2.55-5.53,5.53c0,2.98,2.55,5.11,5.53,5.11
	c16.59,0,29.77-3.4,39.13-13.61c8.93-10.2,12.76-25.09,12.76-46.36v-83.36h34.03c2.98,0,5.53-2.55,5.53-5.53
	c0-2.98-2.55-5.53-5.53-5.53h-34.03v-44.66v-11.06v-26.8c0-0.19-0.01-0.39-0.03-0.58v-0.7c0-19.99,3.4-32.33,9.78-39.13
	c5.95-6.81,15.73-10.2,31.05-10.2c2.98,0,5.53-2.55,5.53-5.53C684.82,253.05,682.26,250.93,679.29,250.93"/>
<path class="st1" d="M760.93,256.88c0-2.98,2.13-5.53,5.53-5.53c2.98,0,5.1,2.55,5.1,5.53v286.67c0,2.98-2.12,5.53-5.1,5.53
	c-3.4,0-5.53-2.55-5.53-5.53V256.88z"/>
<path class="st0" d="M972.29,340.67c-34.88,0-65.93,19.56-83.79,47.21c-1.7,2.55-0.85,5.95,1.28,7.23c2.98,1.28,5.95,1.28,7.65-1.28
	c15.74-25.52,43.38-42.53,74.86-42.53c50.18,0.42,90.59,42.53,90.59,93.57v1.28H877.45c-2.55,0-4.68,2.55-5.1,5.1v0.43v0.85v0.42
	c3.83,54.02,46.78,96.12,99.95,96.12c55.71,0,100.37-46.36,101.22-104.2C1072.66,387.89,1028,341.53,972.29,340.67 M972.29,538.02
	c-45.51,0-83.79-35.3-89.32-81.66h179.48C1056.93,502.72,1018.65,538.02,972.29,538.02"/>
<path class="st1" d="M1139.41,518.88c-2.13-2.13-2.55-5.53-0.42-7.66c2.12-2.12,5.53-2.55,7.65-0.42
	c0.43,0.42,31.05,27.64,71.03,27.64c37.85,0,68.9-22.11,68.9-49.33c0-31.9-31.05-38.7-63.8-46.36
	c-33.17-8.08-71.03-16.59-71.03-55.72c0-28.07,29.77-50.61,65.92-50.61c41.68,0,63.38,24.24,64.23,25.51
	c2.12,2.13,1.7,5.54-0.43,7.66c-2.55,2.13-5.95,1.7-7.65-0.42c-0.43-0.42-19.57-21.69-56.15-21.69c-30.2,0-54.86,17.44-54.86,39.55
	c0,30.2,28.92,37,62.52,45.08c34.03,7.66,72.3,16.59,72.3,56.99c0,33.6-35.3,59.97-79.96,59.97
	C1173.44,549.08,1140.69,520.16,1139.41,518.88"/>
<polygon class="st1" points="1297.76,545.54 1294.48,545.54 1294.48,544.36 1302.47,544.36 1302.47,545.54 1299.17,545.54 
	1299.17,555.15 1297.76,555.15 "/>
<path class="st1" d="M1312.76,550.41c-0.08-1.49-0.18-3.33-0.18-4.66h-0.03c-0.38,1.25-0.82,2.62-1.36,4.1l-1.9,5.23h-1.06
	l-1.76-5.14c-0.51-1.52-0.93-2.91-1.23-4.19h-0.03c-0.03,1.34-0.11,3.15-0.21,4.77l-0.29,4.63h-1.33l0.75-10.79h1.78l1.84,5.22
	c0.45,1.33,0.8,2.53,1.09,3.65h0.03c0.29-1.09,0.67-2.29,1.15-3.65l1.92-5.22h1.78l0.67,10.79h-1.38L1312.76,550.41z"/>
</svg>
